<svg width="90" height="90" viewBox="0 0 90 90" fill="none" xmlns="http://www.w3.org/2000/svg">
<path fill-rule="evenodd" clip-rule="evenodd" d="M61.1186 35.9774C63.3537 36.5709 64.6797 38.8692 64.0861 41.1043C63.4926 43.3395 61.1817 44.6654 58.9466 44.0719L38.4516 38.5788L43.9447 59.0738C44.5382 61.3089 43.2249 63.6072 40.9898 64.2007C38.7546 64.8069 36.4564 63.4809 35.8502 61.2458L28.4882 33.7549C27.6926 30.6737 30.4581 27.7819 33.6277 28.628L61.1186 35.9901V35.9774Z" fill="#FF6400"/>
<path d="M32.8704 17.9827C40.7123 16.3916 54.704 16.4547 62.8868 17.5155C72.9512 18.8035 78.3181 22.5035 80.3891 32.7573C82.1317 41.3569 82.1317 56.9018 80.3891 65.5014C78.3055 75.8058 71.7516 80.4655 61.7882 82.9531C50.7135 85.7187 29.0567 85.8323 17.7674 82.2839C27.8823 91.3254 53.5548 90.8835 66.1574 88.6231C78.0024 86.489 85.1119 80.9706 88.0668 69.1382C90.6429 58.8213 90.6429 39.4627 88.0668 29.1331C85.0235 16.9346 77.573 11.6183 65.7912 9.58517C55.7268 7.84252 39.0201 7.85515 29.2209 10.305C20.5708 12.4643 14.9009 16.2022 13.0951 25.1553C11.3272 33.8812 9.98864 60.223 18.1841 66.0192C16.2773 57.2302 16.3657 41.2054 18.0831 32.7573C19.9015 23.8042 23.9046 19.7885 32.8577 17.9827H32.8704Z" fill="#007800"/>
<path d="M57.1285 72.0172C49.2866 73.6084 35.2949 73.5452 27.1121 72.4845C17.0476 71.1964 11.6808 67.4965 9.60982 57.2426C7.86717 48.643 7.86717 33.0981 9.60982 24.4985C11.6934 14.1942 18.2473 9.5345 28.2107 7.04681C39.2853 4.2813 60.9421 4.16765 72.2315 7.71609C62.1165 -1.32547 36.4441 -0.883499 23.8414 1.37689C11.9965 3.511 4.88699 9.02939 1.93207 20.8617C-0.644022 31.1787 -0.644022 50.5372 1.93207 60.8668C4.97538 73.0654 12.4258 78.3817 24.2076 80.4148C34.2721 82.1574 50.9788 82.1448 60.778 79.695C69.4281 77.5356 75.098 73.7978 76.9038 64.8446C78.6717 56.1187 80.0102 29.777 71.8148 23.9808C73.7216 32.7698 73.6332 48.7946 71.9158 57.2426C70.0974 66.1958 66.0943 70.2115 57.1412 72.0172H57.1285Z" fill="#00A000"/>
</svg>
